<mxfile host="app.diagrams.net" modified="2024-06-08T04:50:27.665Z" agent="Mozilla/5.0 (Windows NT 10.0; Win64; x64) AppleWebKit/537.36 (KHTML, like Gecko) Chrome/125.0.0.0 Safari/537.36" etag="1ntiyEXLbDQHLbTkh0pB" version="24.4.9" type="device">
  <diagram name="Page-1" id="m8ThsBgNNyG6AkDMSjyD">
    <mxGraphModel dx="1274" dy="656" grid="1" gridSize="10" guides="1" tooltips="1" connect="1" arrows="1" fold="1" page="1" pageScale="1" pageWidth="850" pageHeight="1100" math="0" shadow="0">
      <root>
        <mxCell id="0" />
        <mxCell id="1" parent="0" />
        <mxCell id="8audbP7PCDaWYYeXpDk5-21" value="Kafka/RabbitMQ" style="ellipse;whiteSpace=wrap;html=1;aspect=fixed;" vertex="1" parent="1">
          <mxGeometry x="560" y="70" width="100" height="100" as="geometry" />
        </mxCell>
        <mxCell id="8audbP7PCDaWYYeXpDk5-18" value="Resilience4J" style="ellipse;whiteSpace=wrap;html=1;" vertex="1" parent="1">
          <mxGeometry x="580" y="230" width="80" height="80" as="geometry" />
        </mxCell>
        <mxCell id="8audbP7PCDaWYYeXpDk5-3" style="edgeStyle=orthogonalEdgeStyle;rounded=0;orthogonalLoop=1;jettySize=auto;html=1;exitX=0.5;exitY=1;exitDx=0;exitDy=0;" edge="1" parent="1" source="8audbP7PCDaWYYeXpDk5-1" target="8audbP7PCDaWYYeXpDk5-2">
          <mxGeometry relative="1" as="geometry" />
        </mxCell>
        <mxCell id="8audbP7PCDaWYYeXpDk5-6" style="edgeStyle=orthogonalEdgeStyle;rounded=0;orthogonalLoop=1;jettySize=auto;html=1;exitX=1;exitY=0.5;exitDx=0;exitDy=0;entryX=0.25;entryY=1;entryDx=0;entryDy=0;" edge="1" parent="1" source="8audbP7PCDaWYYeXpDk5-1" target="8audbP7PCDaWYYeXpDk5-4">
          <mxGeometry relative="1" as="geometry" />
        </mxCell>
        <mxCell id="8audbP7PCDaWYYeXpDk5-7" style="edgeStyle=orthogonalEdgeStyle;rounded=0;orthogonalLoop=1;jettySize=auto;html=1;exitX=1;exitY=0.5;exitDx=0;exitDy=0;entryX=0;entryY=0.75;entryDx=0;entryDy=0;" edge="1" parent="1" source="8audbP7PCDaWYYeXpDk5-1" target="8audbP7PCDaWYYeXpDk5-5">
          <mxGeometry relative="1" as="geometry" />
        </mxCell>
        <mxCell id="8audbP7PCDaWYYeXpDk5-1" value="API Gateway" style="rounded=0;whiteSpace=wrap;html=1;" vertex="1" parent="1">
          <mxGeometry x="80" y="190" width="120" height="60" as="geometry" />
        </mxCell>
        <mxCell id="8audbP7PCDaWYYeXpDk5-2" value="Auth Server" style="whiteSpace=wrap;html=1;" vertex="1" parent="1">
          <mxGeometry x="80" y="280" width="120" height="60" as="geometry" />
        </mxCell>
        <mxCell id="8audbP7PCDaWYYeXpDk5-4" value="Product Service" style="rounded=0;whiteSpace=wrap;html=1;" vertex="1" parent="1">
          <mxGeometry x="280" y="90" width="120" height="60" as="geometry" />
        </mxCell>
        <mxCell id="8audbP7PCDaWYYeXpDk5-10" style="edgeStyle=orthogonalEdgeStyle;rounded=0;orthogonalLoop=1;jettySize=auto;html=1;exitX=1;exitY=0.5;exitDx=0;exitDy=0;" edge="1" parent="1" source="8audbP7PCDaWYYeXpDk5-5" target="8audbP7PCDaWYYeXpDk5-8">
          <mxGeometry relative="1" as="geometry" />
        </mxCell>
        <mxCell id="8audbP7PCDaWYYeXpDk5-11" style="edgeStyle=orthogonalEdgeStyle;rounded=0;orthogonalLoop=1;jettySize=auto;html=1;exitX=1;exitY=0.5;exitDx=0;exitDy=0;" edge="1" parent="1" source="8audbP7PCDaWYYeXpDk5-5" target="8audbP7PCDaWYYeXpDk5-9">
          <mxGeometry relative="1" as="geometry" />
        </mxCell>
        <mxCell id="8audbP7PCDaWYYeXpDk5-5" value="Order Service" style="rounded=0;whiteSpace=wrap;html=1;" vertex="1" parent="1">
          <mxGeometry x="420" y="180" width="120" height="60" as="geometry" />
        </mxCell>
        <mxCell id="8audbP7PCDaWYYeXpDk5-8" value="Notification Service" style="whiteSpace=wrap;html=1;" vertex="1" parent="1">
          <mxGeometry x="670" y="120" width="120" height="60" as="geometry" />
        </mxCell>
        <mxCell id="8audbP7PCDaWYYeXpDk5-9" value="Inventory Service" style="whiteSpace=wrap;html=1;" vertex="1" parent="1">
          <mxGeometry x="670" y="220" width="120" height="60" as="geometry" />
        </mxCell>
        <mxCell id="8audbP7PCDaWYYeXpDk5-12" value="Mongo DB" style="shape=cylinder3;whiteSpace=wrap;html=1;boundedLbl=1;backgroundOutline=1;size=15;" vertex="1" parent="1">
          <mxGeometry x="400" y="60" width="60" height="80" as="geometry" />
        </mxCell>
        <mxCell id="8audbP7PCDaWYYeXpDk5-13" value="MySql" style="shape=cylinder3;whiteSpace=wrap;html=1;boundedLbl=1;backgroundOutline=1;size=15;" vertex="1" parent="1">
          <mxGeometry x="450" y="240" width="60" height="80" as="geometry" />
        </mxCell>
        <mxCell id="8audbP7PCDaWYYeXpDk5-14" value="Async" style="text;html=1;align=center;verticalAlign=middle;whiteSpace=wrap;rounded=0;" vertex="1" parent="1">
          <mxGeometry x="590" y="130" width="60" height="30" as="geometry" />
        </mxCell>
        <mxCell id="8audbP7PCDaWYYeXpDk5-16" value="Sync" style="text;html=1;align=center;verticalAlign=middle;whiteSpace=wrap;rounded=0;" vertex="1" parent="1">
          <mxGeometry x="600" y="230" width="60" height="30" as="geometry" />
        </mxCell>
        <mxCell id="8audbP7PCDaWYYeXpDk5-19" value="MySql" style="shape=cylinder3;whiteSpace=wrap;html=1;boundedLbl=1;backgroundOutline=1;size=15;" vertex="1" parent="1">
          <mxGeometry x="710" y="280" width="60" height="80" as="geometry" />
        </mxCell>
        <mxCell id="8audbP7PCDaWYYeXpDk5-20" value="Mail" style="rhombus;whiteSpace=wrap;html=1;" vertex="1" parent="1">
          <mxGeometry x="770" y="60" width="80" height="80" as="geometry" />
        </mxCell>
        <mxCell id="8audbP7PCDaWYYeXpDk5-22" value="Eureka" style="whiteSpace=wrap;html=1;" vertex="1" parent="1">
          <mxGeometry x="10" y="370" width="120" height="60" as="geometry" />
        </mxCell>
        <mxCell id="8audbP7PCDaWYYeXpDk5-23" value="Config Server" style="whiteSpace=wrap;html=1;" vertex="1" parent="1">
          <mxGeometry x="160" y="370" width="120" height="60" as="geometry" />
        </mxCell>
        <mxCell id="8audbP7PCDaWYYeXpDk5-24" value="GitHub" style="whiteSpace=wrap;html=1;" vertex="1" parent="1">
          <mxGeometry x="300" y="370" width="120" height="60" as="geometry" />
        </mxCell>
        <mxCell id="8audbP7PCDaWYYeXpDk5-25" value="Vault" style="whiteSpace=wrap;html=1;" vertex="1" parent="1">
          <mxGeometry x="440" y="370" width="120" height="60" as="geometry" />
        </mxCell>
        <mxCell id="8audbP7PCDaWYYeXpDk5-26" value="ZipKin" style="whiteSpace=wrap;html=1;" vertex="1" parent="1">
          <mxGeometry x="580" y="370" width="120" height="60" as="geometry" />
        </mxCell>
        <mxCell id="8audbP7PCDaWYYeXpDk5-27" value="ELK" style="whiteSpace=wrap;html=1;" vertex="1" parent="1">
          <mxGeometry x="720" y="370" width="120" height="60" as="geometry" />
        </mxCell>
        <mxCell id="8audbP7PCDaWYYeXpDk5-29" style="edgeStyle=orthogonalEdgeStyle;rounded=0;orthogonalLoop=1;jettySize=auto;html=1;" edge="1" parent="1" source="8audbP7PCDaWYYeXpDk5-28" target="8audbP7PCDaWYYeXpDk5-1">
          <mxGeometry relative="1" as="geometry" />
        </mxCell>
        <mxCell id="8audbP7PCDaWYYeXpDk5-28" value="Actor" style="shape=umlActor;verticalLabelPosition=bottom;verticalAlign=top;html=1;outlineConnect=0;" vertex="1" parent="1">
          <mxGeometry x="10" y="190" width="30" height="60" as="geometry" />
        </mxCell>
      </root>
    </mxGraphModel>
  </diagram>
</mxfile>
